HIERARCHY
ROOT Hips
{
	OFFSET	0	0	0
	CHANNELS 6  Xposition Yposition Zposition Xrotation Yrotation Zrotation
	JOINT Spine
	{
		OFFSET	0	6.07343	1.2254
		CHANNELS 3  Xrotation Yrotation Zrotation
		JOINT Spine1
		{
			OFFSET	0	10.4501	-1.86609
			CHANNELS 3  Xrotation Yrotation Zrotation
			JOINT Spine2
			{
				OFFSET	0	7.92155	0.84907
				CHANNELS 3  Xrotation Yrotation Zrotation
				JOINT Spine3
				{
					OFFSET	0	9.47973	2.81779
					CHANNELS 3  Xrotation Yrotation Zrotation
					JOINT Spine4
					{
						OFFSET	0	14.033	-1.43689
						CHANNELS 3  Xrotation Yrotation Zrotation
						JOINT Neck
						{
							OFFSET	0	6.69926	-4.69321
							CHANNELS 3  Xrotation Yrotation Zrotation
							JOINT Head
							{
								OFFSET	0	8.04284	-2.40725
								CHANNELS 3  Xrotation Yrotation Zrotation
								End Site
								{
									OFFSET	0	16.7761	-0.811749
								}
							}
						}
					}
					JOINT LeftShoulder
					{
						OFFSET	-4.03075	17.056	-8.04284
						CHANNELS 3  Xrotation Yrotation Zrotation
						JOINT LeftArm
						{
							OFFSET	-8.77205	-2.40725	3.08839
							CHANNELS 3  Xrotation Yrotation Zrotation
							JOINT LeftForeArm
							{
								OFFSET	-29.1116	-1.3287	2.07796
								CHANNELS 3  Xrotation Yrotation Zrotation
								JOINT LeftHand
								{
									OFFSET	-24.2228	-1.67393	1.72899
									CHANNELS 3  Xrotation Yrotation Zrotation
									End Site
									{
										OFFSET	-8.8401	-0.610901	0.630956
									}
								}
							}
						}
					}
					JOINT RightShoulder
					{
						OFFSET	4.03075	17.056	-8.04284
						CHANNELS 3  Xrotation Yrotation Zrotation
						JOINT RightArm
						{
							OFFSET	8.77205	-2.40725	3.08839
							CHANNELS 3  Xrotation Yrotation Zrotation
							JOINT RightForeArm
							{
								OFFSET	29.1116	-1.3287	2.07796
								CHANNELS 3  Xrotation Yrotation Zrotation
								JOINT RightHand
								{
									OFFSET	24.2228	-1.67393	1.72899
									CHANNELS 3  Xrotation Yrotation Zrotation
									End Site
									{
										OFFSET	8.8401	-0.610901	0.630956
									}
								}
							}
						}
					}
				}
			}
		}
	}
	JOINT LeftUpLeg
	{
		OFFSET	-8.30253	-3.03671	-0.612699
		CHANNELS 3  Xrotation Yrotation Zrotation
		JOINT LeftLeg
		{
			OFFSET	-1.82971	-35.8523	-0.56045
			CHANNELS 3  Xrotation Yrotation Zrotation
			JOINT LeftFoot
			{
				OFFSET	-1.78206	-32.849	2.82502
				CHANNELS 3  Xrotation Yrotation Zrotation
				JOINT LeftToeBase
				{
					OFFSET	0	-4.10589	-10.9053
					CHANNELS 3  Xrotation Yrotation Zrotation
					End Site
					{
						OFFSET	0	-1.64236	-6.56943
					}
				}
			}
		}
	}
	JOINT RightUpLeg
	{
		OFFSET	8.30253	-3.03671	-0.612699
		CHANNELS 3  Xrotation Yrotation Zrotation
		JOINT RightLeg
		{
			OFFSET	1.82971	-35.8523	-0.56045
			CHANNELS 3  Xrotation Yrotation Zrotation
			JOINT RightFoot
			{
				OFFSET	1.78206	-32.849	2.82502
				CHANNELS 3  Xrotation Yrotation Zrotation
				JOINT RightToeBase
				{
					OFFSET	0	-4.10589	-10.9053
					CHANNELS 3  Xrotation Yrotation Zrotation
					End Site
					{
						OFFSET	0	-1.64236	-6.56943
					}
				}
			}
		}
	}
}
MOTION
Frames: 10
Frame Time: 0.020409
 111.522 77.8401 -248.214 4.87326 132.929 -6.81397 0.000563776 -0.0091819 3.51359 177.359 -179.982 -174.144 178.219 -179.945 -174.144 0.809569 -0.0091819 3.51359 173.121 -179.86 -178.837 162.832 -175.63 175.382 174.83 -173.976 178.06 169.792 -179.427 159.581 171.53 -178.11 -103.698 167.529 -133.954 169.128 -0 1.74305 -0.122883 1.40713 28.4286 -3.05695 175.371 -172.86 136.485 71.2165 -171.347 -161.099 -0 -29.2884 8.25115 173.314 143.505 -165.896 176.057 -163.768 179.933 10.3342 -0.0275003 11.4533 3.95142 0 0 34.1642 35.9622 -11.217 166.948 168.257 -179.956 156.805 -179.952 168.586 179.303 180 -180
 111.1 77.8314 -247.969 4.76866 132.241 -6.81836 180 179.998 -176.477 177.289 179.996 -174.129 178.119 179.987 -174.129 0.685614 0.00218125 3.52269 173.281 -179.863 -178.834 163.362 -175.783 175.869 174.989 -174.107 178.21 169.918 -179.103 159.794 170.046 -177.647 -103.359 167.838 -134.628 169.483 -0 1.92971 -0.156561 1.36925 27.837 -2.97501 175.388 -171.606 135.654 71.2048 -170.081 -158.208 -0 -30.6633 9.96494 172.345 143.753 -165.363 176.843 -163.801 179.867 9.6511 -0.0173946 11.4542 3.94727 0 0 33.9718 35.8258 -10.7003 166.56 168.525 -179.843 156.985 -179.948 168.653 179.268 180 -180
 110.634 77.7987 -247.85 4.57243 131.719 -6.95653 179.999 179.987 -176.463 177.285 179.974 -174.105 178.087 179.922 -174.105 0.61161 0.0130506 3.53688 173.449 -179.865 -178.829 163.85 -175.76 176.161 175.133 -173.984 178.277 169.998 -178.479 159.86 168.916 -177.339 -103.069 168.098 -135.31 169.698 -0 2.08912 -0.244462 1.33291 27.3541 -2.89609 175.407 -170.486 135.025 71.1806 -168.969 -155.638 -0 -31.9071 11.6439 171.424 143.995 -164.837 177.596 -163.834 179.877 9.23465 -0.014014 11.4693 3.94449 0 0 33.871 35.6846 -10.5275 166.281 168.856 -179.878 157.094 -179.963 168.717 179.232 180 -180
 110.405 77.8258 -247.963 4.84859 131.65 -7.16898 179.999 179.982 -176.475 177.332 179.964 -174.126 178.075 179.892 -174.126 0.473368 0.0181438 3.52461 173.862 -179.874 -178.832 164.987 -175.614 176.315 175.473 -173.797 178.311 170.069 -177.826 159.906 168.12 -176.952 -102.774 168.382 -135.967 170.095 -0 2.2871 -0.119485 1.44612 26.9618 -3.14217 175.347 -169.283 133.799 71.1218 -168.21 -153.786 -0 -32.8502 13.0459 170.353 144.129 -164.607 178.877 -163.862 179.809 8.5392 -0.043465 11.4447 3.94258 0 0 33.8751 35.599 -11.208 165.907 169.15 -179.951 157.282 179.937 168.767 179.192 180 -180
 110.098 77.811 -247.839 4.77191 131.874 -7.03247 179.998 179.972 -176.474 177.365 179.944 -174.123 178.064 179.832 -174.123 0.377006 0.0280523 3.52605 174.152 -179.88 -178.831 165.778 -175.396 176.115 175.712 -173.633 178.25 170.138 -177.52 160.005 167.359 -176.717 -102.643 168.547 -136.172 170.243 -0 2.3306 -0.0246214 1.4519 26.5675 -3.1545 175.514 -167.827 132.892 71.1159 -167.538 -152.557 -0 -33.5761 14.2398 169.25 144.377 -164.394 0.527348 -15.9009 -0.110227 8.26477 -0.0812604 11.5118 3.93968 0 0 33.6895 35.4491 -11.6548 165.663 169.461 -179.864 157.232 179.912 168.82 179.153 180 -180
 109.723 77.9893 -247.672 4.92778 132.07 -7.16588 179.998 179.971 -176.453 177.419 179.941 -174.088 178.09 179.824 -174.088 0.329551 0.0293505 3.54698 174.365 -179.884 -178.823 166.32 -174.982 175.386 175.879 -173.401 178.039 170.189 -177.349 160.087 166.693 -176.455 -102.618 168.655 -135.981 170.246 -0 2.30255 0.310999 1.46557 26.1591 -3.18382 175.833 -165.91 132.265 71.0312 -167.133 -151.555 -0 -34.1328 15.3019 167.099 144.609 -163.364 3.06323 -15.5227 -0.0676874 7.34511 -0.0672094 11.4833 3.93651 0 0 33.4163 35.3018 -11.9945 165.314 169.942 -179.878 157.388 179.98 168.873 179.116 180 -180
 109.476 78.0191 -247.439 5.03653 132.466 -7.06284 179.999 179.98 -176.478 177.475 179.96 -174.13 178.134 179.88 -174.13 0.319243 0.0200287 3.5218 174.492 -179.887 -178.831 166.624 -174.633 174.993 175.97 -173.053 177.9 170.277 -177.957 160.372 166.172 -176.469 -102.407 168.697 -135.34 170.19 -0 2.23522 0.51083 1.48586 25.75 -3.22738 176.261 -164.003 131.608 70.9663 -166.81 -150.822 -0 -34.6065 16.2482 164.929 144.947 -162.837 5.17271 -15.262 0.0050076 5.46175 -0.0100041 11.4706 3.93411 0 0 33.2107 35.1859 -12.11 165.158 170.322 -179.948 158.026 179.987 168.859 179.095 180 -180
 109.254 78.0758 -247.087 5.07054 132.878 -7.12735 179.999 179.985 -176.478 177.523 179.97 -174.129 178.165 179.909 -174.129 0.294886 0.0151707 3.52234 174.638 -179.89 -178.831 166.99 -174.317 174.711 176.08 -172.719 177.793 170.351 -178.589 160.629 165.539 -176.255 -102.068 168.77 -134.663 170.292 -0 2.09629 0.809917 1.44784 25.3609 -3.14403 176.627 -162.302 131.253 70.8589 -166.476 -150.12 -0 -35.0076 17.147 163.035 145.303 -162.475 7.12877 -15.004 -0.00417453 2.84595 0.0211974 11.4555 3.92955 0 0 32.9061 35.1385 -11.8788 164.93 170.63 -179.98 158.453 179.998 168.849 179.077 180 -180
 109.01 78.0061 -246.707 5.336 132.774 -7.4984 179.999 179.992 -176.486 177.551 179.984 -174.143 178.225 179.951 -174.143 0.399733 0.00817951 3.51433 174.444 -179.887 -178.834 166.404 -174.154 174.374 175.903 -172.492 177.671 170.39 -179.148 160.803 164.719 -175.617 -101.967 168.895 -134.025 170.226 -0 1.85779 1.5595 1.37873 24.9441 -2.993 177.091 -160.88 131.306 70.8123 -166.06 -149.099 -0 -35.4559 18.1432 161.865 145.757 -161.647 9.41862 -14.8021 0.114998 0.0621508 -0.029658 11.4655 3.92413 0 0 32.8572 35.0829 -11.7537 164.876 170.96 179.951 159.046 179.973 168.817 179.074 180 -180
 108.706 77.9616 -246.238 5.22119 133.044 -7.84314 180 179.998 -176.462 177.561 179.996 -174.104 178.261 179.989 -174.104 0.475732 0.00188977 3.53779 174.285 -179.883 -178.827 165.942 -174.078 174.255 175.761 -172.311 177.612 170.319 -179.894 160.777 163.662 -174.938 -101.886 169.012 -133.029 170.184 -0 1.51337 2.5279 1.33278 24.3574 -2.89176 177.998 -159.483 131.864 71.0214 -165.184 -147.508 -0 -35.9091 19.0911 160.473 146.537 -160.709 11.1944 -14.7785 0.181966 178.001 -179.949 -168.527 3.91996 0 0 32.7389 34.9728 -11.5778 164.884 171.171 179.892 158.897 179.98 168.751 179.064 180 -180
